inDegrees=no
num_controls=7
num_derivatives=13
num_iterations=115
num_multipliers=7
num_parameters=0
num_slacks=7
num_states=26
objective=0.477041
objective_accelerations=0.044783
objective_balance=0.003687
objective_effort=0.040846
objective_height=0.382067
objective_ligament=0.005659
solver_duration=1608.167739
status=Solve_Succeeded
success=true
DataType=double
version=3
OpenSimVersion=4.5
endheader
time	/jointset/ground_pelvis/pelvis_tilt/value	/jointset/ground_pelvis/pelvis_tx/value	/jointset/ground_pelvis/pelvis_ty/value	/jointset/hip_l/hip_flexion_l/value	/jointset/hip_l/hip_adduction_l/value	/jointset/hip_l/hip_rotation_l/value	/jointset/back/lumbar_extension/value	/jointset/patellofemoral_l/patellar_flexion_l/value	/jointset/knee_l/knee_flexion_l/value	/jointset/knee_l/knee_adduction_l/value	/jointset/knee_l/knee_rotation_l/value	/jointset/ankle_l/ankle_angle_l/value	/jointset/subtalar_l/subtalar_angle_l/value	/jointset/ground_pelvis/pelvis_tilt/speed	/jointset/ground_pelvis/pelvis_tx/speed	/jointset/ground_pelvis/pelvis_ty/speed	/jointset/hip_l/hip_flexion_l/speed	/jointset/hip_l/hip_adduction_l/speed	/jointset/hip_l/hip_rotation_l/speed	/jointset/back/lumbar_extension/speed	/jointset/patellofemoral_l/patellar_flexion_l/speed	/jointset/knee_l/knee_flexion_l/speed	/jointset/knee_l/knee_adduction_l/speed	/jointset/knee_l/knee_rotation_l/speed	/jointset/ankle_l/ankle_angle_l/speed	/jointset/subtalar_l/subtalar_angle_l/speed	/forceset/tau_hip_flexion_l	/forceset/tau_hip_adduction_l	/forceset/tau_hip_rotation_l	/forceset/tau_knee_flexion_l	/forceset/tau_ankle_angle_l	/forceset/tau_subtalar_angle_l	/forceset/tau_lumbar_extension	lambda_cid13_p0	lambda_cid13_p1	lambda_cid13_p2	lambda_cid13_p3	lambda_cid13_p4	lambda_cid13_p5	lambda_cid14_p0	/jointset/ground_pelvis/pelvis_tilt/accel	/jointset/ground_pelvis/pelvis_tx/accel	/jointset/ground_pelvis/pelvis_ty/accel	/jointset/hip_l/hip_flexion_l/accel	/jointset/hip_l/hip_adduction_l/accel	/jointset/hip_l/hip_rotation_l/accel	/jointset/back/lumbar_extension/accel	/jointset/patellofemoral_l/patellar_flexion_l/accel	/jointset/knee_l/knee_flexion_l/accel	/jointset/knee_l/knee_adduction_l/accel	/jointset/knee_l/knee_rotation_l/accel	/jointset/ankle_l/ankle_angle_l/accel	/jointset/subtalar_l/subtalar_angle_l/accel	gamma_cid13_p0	gamma_cid13_p1	gamma_cid13_p2	gamma_cid13_p3	gamma_cid13_p4	gamma_cid13_p5	gamma_cid14_p0
1	-0.1134583507400998	-0.06079264186924005	0.6789931197981469	1.340834820488009	-0.3273071402864905	0.07320605296707948	-0.9599307959682758	1.40488080923313	1.404880809232694	-0.06350158679073668	-0.1745282806743689	0.2756550273160847	0.06432577110752515	0.1035309719228536	0.02549896795223641	0.0710788699831609	-0.3011474403126663	-0.00757029128222231	-0.06540041805619387	-4.311545172602434e-05	-0.162501532542296	-0.1625015325422484	-0.002595615268898293	-2.112670469648382e-05	0.02619464132826847	0.002603604730983673	-0.3761260842525748	0.01904627120808416	0.001420791236687963	-0.3774372526582103	0.04324484041172051	0.02257978386434287	0.4273478782716178	-37.60978423811641	-1.878737161870239	-1.688200088195078	13.83888934625869	-800.9370188411922	-66.1638287014887	-0.04149547431582917	0.838970838061999	-0.01290142278378092	1.56641577713168	-5.037677342441776	-0.1324266496133517	-1.667070492021512	-0.01106237839170959	-5.038026483512005	-5.038026483510462	-0.3646753557048098	-0.01267065727562005	-1.196218005522393	-0.6733103476590775	-8.659720970042327e-09	1.970216261727136e-08	6.494191122507716e-08	5.424304518779857e-09	-2.298741590550271e-08	1.280315004009901e-07	-1.709167365186395e-08
1.01	-0.1123815128420786	-0.06053823903770526	0.6797819401040462	1.337572563591197	-0.3273887133058133	0.07246793729219977	-0.9599310460450197	1.40300447666062	1.40300447666029	-0.06354385557325218	-0.1745282083775604	0.2758573035954577	0.06431921135815577	0.1118315415854488	0.02538828694967458	0.08666636944263931	-0.3512586347603796	-0.00873522423026812	-0.08221081031757674	1.988580515433892e-05	-0.2127362265717444	-0.2127362265717132	-0.005853198505099498	3.18856683956565e-05	0.0142512369689739	-0.00390776515718068	-0.3751931787407175	0.01921999047115285	0.001342316027370519	-0.3770834197976984	0.0431270363488506	0.02272156255803149	0.4268414382051646	-37.59465310984869	-1.957036172364932	-1.6596398021436	13.68309179886849	-800.3291403620067	-66.21864946034817	-0.04152881129565576	0.8248378622153489	-0.009146091891774927	1.552088161259909	-4.991047813837348	-0.1071711963838012	-1.686255601697997	0.01899923731786451	-5.011872802825541	-5.011872802828833	-0.3055698370840436	0.01375516726210232	-1.194808205982375	-0.6388949113829179	-1.459267295723834e-08	1.237741524788331e-08	9.426051468223605e-08	1.024068105209123e-08	-2.797949485413147e-08	1.493947457959829e-07	-2.369148957162033e-08
1.02	-0.1112218216810601	-0.06028474194677597	0.6807260696307211	1.333810553286329	-0.3274816645704129	0.07156207129300671	-0.9599298625375792	1.400626660759782	1.400626660759557	-0.06361855419403116	-0.1745277123604912	0.275939864520268	0.0642477689895072	0.1201016245223272	0.02531781983113904	0.1021407141382708	-0.4010981219241436	-0.00984594033765881	-0.09895048291901272	0.0002436014456285778	-0.2627981982077648	-0.2627981982077531	-0.009081582921551002	6.361734790670819e-05	0.002251570415703389	-0.01037291912485734	-0.3742602732288496	0.01939370973422473	0.001263840818043455	-0.3767295869371863	0.04300923228597948	0.02286334125172398	0.4263349981387209	-37.59082457719412	-2.032219460369387	-1.632874753322069	13.58549316599718	-799.8660077861862	-66.24923925503806	-0.04156297426703744	0.8328734929186051	-0.004858645978527483	1.5437848243623	-4.98333588565189	-0.1215832814823263	-1.652926560032138	0.02108049832696596	-5.003482004826375	-5.003482004825496	-0.3588355917548683	-0.01692679599183692	-1.207470444317587	-0.6640671635615394	-2.226694455252376e-08	3.062812748418958e-09	1.210839047040652e-07	1.839005139918407e-08	-3.584061297891504e-08	1.666922026378854e-07	-2.974859374467092e-08
1.03	-0.1099799991269389	-0.06003150604999664	0.6818244001452969	1.329551563450174	-0.3275854267288768	0.070489178600023	-0.9599237130352669	1.397748997955348	1.397748997955328	-0.06372540822796478	-0.1745269533310123	0.2759024277231502	0.06411207793622005	0.1282172104497073	0.02536060151481824	0.1175092153587001	-0.4506512858103247	-0.01089741611031367	-0.1156186517139937	0.001204849949901371	-0.3127156630907098	-0.3127156630906706	-0.01228600728717665	8.4417695430896e-05	-0.009720545342085956	-0.01674385041538422	-0.3749350311457105	0.01973854286411261	0.001144990089983229	-0.3759134500604792	0.04269346331619775	0.02311463712527411	0.4277199180843969	-37.69138123161558	-2.150783797247088	-1.583093794847365	13.08239132037502	-800.468788764888	-66.27771271273593	-0.04160564872344588	0.794047175389181	0.01353823833057238	1.530947964133702	-4.934026615890573	-0.09558203052459555	-1.672380022224547	0.1664296653266116	-4.983066595053818	-4.983066595050233	-0.3007820838050992	0.01105232961025104	-1.189326320819505	-0.6204061663469841	-2.995898471523866e-08	-6.272094395229863e-09	1.478818333643094e-07	2.657343188723388e-08	-4.373100701365941e-08	1.839481718414911e-07	-3.580016004275513e-08
1.04	-0.1086583915069959	-0.05977690400382261	0.683075928710727	1.324798497980001	-0.3276994341061408	0.06924988062249182	-0.9599013945200972	1.394372722929079	1.394372722929265	-0.06386421375052263	-0.1745260925221626	0.2757458209325925	0.06391331755911793	0.1360586376867468	0.02559104971007568	0.1327803243091453	-0.4999132487280804	-0.01189498409767049	-0.1322315398287133	0.00347740400813903	-0.3625206425746654	-0.362520642574603	-0.01547188064634923	8.397322238319719e-05	-0.02158242827227149	-0.02298678388786009	-0.3756097890625687	0.02008337599400326	0.001026139361907931	-0.3750973131837724	0.04237769434641622	0.02336593299882828	0.4291048380300749	-37.80347301794774	-2.266151689301325	-1.535166645340096	12.63594535534871	-801.2204354508697	-66.28240673472571	-0.0416486141540807	0.7780417548504928	0.03267465633711963	1.524306370365499	-4.925095691966805	-0.110801724422717	-1.641870423979837	0.2833416091197823	-4.980984925028482	-4.980984925028478	-0.3551253904642535	-0.02117576010621652	-1.185423878796829	-0.6384675999513413	-3.473142167141927e-08	-1.701099412282045e-08	1.745917435475964e-07	2.857808360506253e-08	-4.968598814439054e-08	1.940818197563321e-07	-4.138306662327643e-08
1.05	-0.1072597100424982	-0.05951906444903091	0.6844796188324322	1.319554382428892	-0.327823106060702	0.06784484305998707	-0.9598500054238058	1.390499018513971	1.390499018514042	-0.06403483538995491	-0.1745253120900008	0.2754710655416265	0.06365279885361141	0.1436334369480305	0.02600762057610742	0.147935115697285	-0.5488485696194133	-0.01282557914135698	-0.1487592072986338	0.007000021965162335	-0.4121960425145483	-0.412196042514421	-0.01864998601338707	7.20728138668779e-05	-0.03335830001975752	-0.02909159636660157	-0.3757821112206918	0.02042734511810487	0.0008767454105470181	-0.3741211109296715	0.04229280190357349	0.02367322375843318	0.4300385538680459	-37.80572639500069	-2.432340340766826	-1.470832770467646	12.11152292461596	-801.4624870376338	-66.34001259052087	-0.04170696435548095	0.740562954495107	0.05076829713602457	1.507666697205656	-4.868561420386879	-0.08213453572195491	-1.655738296079732	0.4166628960172594	-4.95717839209629	-4.957178392086547	-0.2988089287910619	0.008842210768379528	-1.172119146443345	-0.5927030343747923	-3.941262102739571e-08	-2.779376861865922e-08	2.012989031534784e-07	3.03896500488218e-08	-5.558048762187128e-08	2.039928951308993e-07	-4.69513275876239e-08
1.06	-0.1057866077968424	-0.05925613518649892	0.6860341771028524	1.313822751442339	-0.3279556731939759	0.06627502414526792	-0.9597574019465315	1.386129287926738	1.386129287926693	-0.06423716924685163	-0.1745246427835265	0.2750788613684417	0.06333198903080965	0.1509427939184273	0.02660899125813303	0.1629539540521253	-0.5974163358175598	-0.013674019840258	-0.1651878102718173	0.01172028020313182	-0.4617258769995555	-0.4617258769993633	-0.02181432413912478	6.174808505917968e-05	-0.04507218471599802	-0.03504500734691282	-0.375954433378805	0.02077131424221018	0.000727351459165774	-0.3731449086755704	0.04220790946073005	0.02398051451804303	0.4309722697060254	-37.81970302916346	-2.595270969474728	-1.408395244599819	11.64189573677834	-801.8565897979616	-66.37521914280342	-0.0417639306844266	0.7249532966731084	0.06963461953588947	1.497115763705611	-4.851584753329528	-0.09437085546562284	-1.622057524632451	0.5228696653089779	-4.951871834053361	-4.951871834053369	-0.3523719422042299	-0.02086062416449481	-1.173026468547725	-0.6081873002652984	-4.411997460382919e-08	-3.926497409963545e-08	2.248284379122862e-07	3.211908958723828e-08	-6.110820015725744e-08	2.114515367120446e-07	-5.20935191070565e-08
1.07	-0.104241592860059	-0.058986246565369	0.6877381886742346	1.307607254829257	-0.3280962959126254	0.0645415355559386	-0.9596118134353946	1.381265107865884	1.381265107866044	-0.06447114257743131	-0.1745240749195548	0.274569836780463	0.06295243868870198	0.1580291679314419	0.02740170939137796	0.1778201432751879	-0.645623273444798	-0.01443410423637588	-0.1814865749526672	0.01757846848063313	-0.5110742965482161	-0.5110742965479471	-0.02497844242494658	5.209042649037502e-05	-0.05672134486142343	-0.04083484140337974	-0.3757694179414914	0.02111947021947176	0.000546489894897631	-0.3719150487672269	0.04227978849166446	0.02435579752996391	0.4315859347425872	-37.74807667052529	-2.811841037493031	-1.326986555026669	11.06762704575421	-801.7865496374823	-66.45846013121078	-0.04183243048641525	0.6958216177099334	0.08904366697068679	1.4771245580579	-4.796297137232538	-0.0643900392873359	-1.630333336522874	0.6444503773546916	-4.920939706797536	-4.920939706785959	-0.2981778800884945	0.009076419244997948	-1.15915655468107	-0.5598694149756307	-4.882871936220188e-08	-5.077279825003388e-08	2.481889500728453e-07	3.38441606732429e-08	-6.661640274891516e-08	2.187797296871567e-07	-5.721304735814256e-08
1.08	-0.102626645750327	-0.05870744011155625	0.689590012949138	1.30091147906594	-0.3282440320367567	0.0626457498404593	-0.9594022116478037	1.375908521071238	1.375908521071604	-0.06473670631253274	-0.1745235846809794	0.2739446614376019	0.06251589241470203	0.1649292285082292	0.02839255779469879	0.1925164947563047	-0.6934721658644993	-0.01509670093659297	-0.1976472355019815	0.02452293549349432	-0.5602072237578819	-0.560207223757534	-0.02813240504346155	4.622300584427664e-05	-0.06830233569249386	-0.04644419372537641	-0.3755844025041786	0.02146762619673495	0.00036562833061606	-0.3706851888588835	0.04235166752259954	0.02473108054188742	0.4321995997791481	-37.68839808089641	-3.025053903358395	-1.247558423467745	10.54624254935952	-801.8720093203825	-66.52102801329659	-0.04189838941141644	0.6876906094276692	0.1092606735510685	1.463148215316441	-4.779975711822162	-0.07487331628546545	-1.594436698325323	0.7401254123809389	-4.908773366254382	-4.908773366253937	-0.3503408087428657	-0.02010257657995465	-1.159392605676735	-0.5720909533712494	-5.301928712789523e-08	-6.331322389885047e-08	2.667128913627738e-07	3.467152447150934e-08	-7.13867297862658e-08	2.20851959451599e-07	-6.151018185613383e-08
